<?xml version="1.0" encoding="UTF-8" standalone="no"?>
<svg
   xmlns:dc="http://purl.org/dc/elements/1.1/"
   xmlns:cc="http://creativecommons.org/ns#"
   xmlns:rdf="http://www.w3.org/1999/02/22-rdf-syntax-ns#"
   xmlns:svg="http://www.w3.org/2000/svg"
   xmlns="http://www.w3.org/2000/svg"
   xmlns:sodipodi="http://sodipodi.sourceforge.net/DTD/sodipodi-0.dtd"
   xmlns:inkscape="http://www.inkscape.org/namespaces/inkscape"
   inkscape:version="1.0 (4035a4fb49, 2020-05-01)"
   sodipodi:docname="Incubator-logo.svg"
   id="svg2"
   height="1000"
   width="796.56232"
   version="1.0">
  <metadata
     id="metadata68">
    <rdf:RDF>
      <cc:Work
         rdf:about="">
        <dc:format>image/svg+xml</dc:format>
        <dc:type
           rdf:resource="http://purl.org/dc/dcmitype/StillImage" />
        <dc:title></dc:title>
      </cc:Work>
    </rdf:RDF>
  </metadata>
  <sodipodi:namedview
     inkscape:current-layer="svg2"
     inkscape:window-maximized="1"
     inkscape:window-y="-8"
     inkscape:window-x="-8"
     inkscape:cy="498.53217"
     inkscape:cx="398.28117"
     inkscape:zoom="0.51582437"
     fit-margin-bottom="0"
     fit-margin-right="0"
     fit-margin-left="0"
     fit-margin-top="0"
     showgrid="false"
     id="namedview66"
     inkscape:window-height="705"
     inkscape:window-width="1366"
     inkscape:pageshadow="2"
     inkscape:pageopacity="0"
     guidetolerance="10"
     gridtolerance="10"
     objecttolerance="10"
     borderopacity="1"
     bordercolor="#666666"
     pagecolor="#ffffff" />
  <defs
     id="defs5" />
  <g
     transform="translate(-1.7188305,-1.4678344)"
     id="g2799">
    <path
       id="path1456"
       style="fill:#ffffff;fill-opacity:1;fill-rule:evenodd;stroke:#006699;stroke-width:96.1384;stroke-linecap:butt;stroke-linejoin:miter;stroke-miterlimit:4;stroke-dasharray:none;stroke-opacity:1"
       d="m 150,838.53703 c 160.71416,149.23458 339.28585,149.23458 500.00001,0 C 930,578.53703 550,49.537033 400.00001,49.537033 250,49.537033 -130,578.53703 150,838.53703 Z" />
    <g
       id="g2794"
       transform="translate(-0.213334,2.324984)">
      <path
         id="path2331"
         style="fill:#990000;fill-opacity:1;fill-rule:evenodd;stroke:none;stroke-width:20;stroke-linecap:round;stroke-linejoin:round;stroke-miterlimit:4;stroke-dasharray:none;stroke-dashoffset:0;stroke-opacity:1"
         d="m 550.21332,606.99915 c 0,82.85451 -67.38235,150.00007 -149.99999,150.00007 -82.61763,0 -149.99999,-67.14556 -149.99999,-150.00007 0,-82.85452 67.78988,-150.0214 150.40752,-150.0214 82.61764,0 149.59246,67.16688 149.59246,150.0214 z" />
      <path
         id="path2202"
         style="fill:#339966;fill-opacity:1;fill-rule:evenodd;stroke:#339966;stroke-width:2.29256;stroke-linecap:butt;stroke-linejoin:round;stroke-miterlimit:1;stroke-dasharray:none;stroke-opacity:1"
         d="M 439.99999,167 C 409.99999,138 390,138 360,167 166.54001,354.01131 130,556.99999 150,577 h 50 c 40,-229.99999 360.00001,-229.99999 399.99999,0 h 50.00002 C 670,556.99999 640,347.00001 439.99999,167 Z" />
      <path
         id="path3070"
         style="fill:#339966;fill-opacity:1;fill-rule:evenodd;stroke:#339966;stroke-width:0.250775;stroke-linecap:butt;stroke-linejoin:miter;stroke-miterlimit:4;stroke-dasharray:none;stroke-opacity:1"
         d="M 639.26128,626.99999 H 599.26127 C 549.26128,857 249.26128,857 199.26128,626.99999 h -40 c -2.91475,0 -8.77973,6.99185 -8.09859,10.42594 56.65856,285.65398 440.4297,284.33992 498.0986,-0.42594 0.78306,-3.86678 -6.66669,-10 -10.00001,-10 z" />
    </g>
  </g>
</svg>
