<svg xmlns="http://www.w3.org/2000/svg" viewBox="0 0 128 27" width="128" height="27">
			<g fill="none" fill-rule="evenodd">
				<g fill="#092344">
					<path d="M 36 21 V 0 h 4.815 v 11.768 l 1.285 -1.571 l 2.77 -3.202 h 6.885 L 45.98 12.53 L 52 21 h -6.245 l -3.28 -5.325 l -1.66 1.546 V 21 H 36 M 9.199 7 l -2.34 9.56 L 5.03 7 H 0 l 3.718 14 h 6.465 l 1.811 -7.265 L 13.805 21 h 6.466 L 24 7 h -5.052 l -1.818 9.56 L 14.752 7 H 9.2 M 78.74 10.538 L 79 6.383 h -4.278 l -0.324 1.567 C 73.412 6.883 72.188 6 70.032 6 C 66.13 6 64 8.59 64 13.5 c 0 4.911 2.131 7.5 6.032 7.5 c 2.156 0 3.38 -0.88 4.366 -1.947 l 0.335 1.616 H 79 l -0.26 -4.205 v -5.926 Z m -4.678 4.778 c -0.6 0.8 -1.535 1.334 -2.758 1.334 c -1.402 0 -2.52 -0.935 -2.52 -3.15 s 1.118 -3.15 2.52 -3.15 c 1.223 0 2.159 0.535 2.758 1.335 v 3.631 Z M 28.5 0 a 2.5 2.5 0 1 0 0 5 a 2.5 2.5 0 0 0 0 -5 M 33 9.95 V 7 h -7 v 14 h 7 v -2.937 h -2.194 V 9.95 H 33 M 56 2.5 a 2.5 2.5 0 1 0 5 0 a 2.5 2.5 0 0 0 -5 0 M 56.193 18.063 H 54 V 21 h 7 V 7 h -7 v 2.95 h 2.193 Z"/>
				</g>
				<path fill="#7b7b7b" fill-rule="nonzero" d="M 82.241 18.29 h 2.997 v 2.996 h -2.997 V 18.29 Z m 9.267 -3.97 c 0 0.846 0.112 1.598 0.338 2.255 c 0.225 0.657 0.535 1.206 0.931 1.647 c 0.396 0.44 0.86 0.778 1.39 1.012 a 4.139 4.139 0 0 0 1.688 0.351 c 0.594 0 1.156 -0.117 1.688 -0.35 a 4.042 4.042 0 0 0 1.39 -1.013 c 0.396 -0.441 0.706 -0.99 0.931 -1.647 c 0.226 -0.657 0.338 -1.409 0.338 -2.255 c 0 -0.846 -0.112 -1.597 -0.337 -2.254 c -0.226 -0.657 -0.536 -1.21 -0.932 -1.66 a 3.967 3.967 0 0 0 -1.39 -1.027 a 4.139 4.139 0 0 0 -1.688 -0.35 c -0.594 0 -1.156 0.116 -1.688 0.35 a 3.967 3.967 0 0 0 -1.39 1.026 c -0.396 0.45 -0.706 1.004 -0.931 1.66 c -0.226 0.658 -0.338 1.41 -0.338 2.255 Z m -2.43 0 c 0 -1.026 0.144 -1.984 0.432 -2.875 a 6.515 6.515 0 0 1 1.296 -2.322 a 6.105 6.105 0 0 1 2.133 -1.553 c 0.846 -0.378 1.818 -0.567 2.916 -0.567 c 1.116 0 2.092 0.19 2.93 0.567 a 6.136 6.136 0 0 1 2.119 1.553 a 6.515 6.515 0 0 1 1.296 2.322 c 0.288 0.89 0.432 1.85 0.432 2.875 a 9.17 9.17 0 0 1 -0.432 2.862 a 6.533 6.533 0 0 1 -1.296 2.309 a 5.99 5.99 0 0 1 -2.12 1.539 c -0.837 0.369 -1.813 0.553 -2.929 0.553 c -1.098 0 -2.07 -0.184 -2.916 -0.553 a 5.962 5.962 0 0 1 -2.133 -1.54 a 6.533 6.533 0 0 1 -1.296 -2.308 a 9.17 9.17 0 0 1 -0.432 -2.862 Z m 16.773 -6.993 h 2.16 v 2.943 h 0.054 c 0.558 -1.134 1.242 -1.97 2.052 -2.51 c 0.81 -0.54 1.836 -0.793 3.078 -0.757 v 2.43 c -0.918 0 -1.701 0.126 -2.349 0.378 c -0.648 0.252 -1.17 0.621 -1.566 1.107 c -0.396 0.486 -0.684 1.076 -0.864 1.769 c -0.18 0.693 -0.27 1.49 -0.27 2.39 v 6.21 h -2.295 V 7.326 Z m 21.714 12.771 c 0 2.286 -0.522 3.996 -1.566 5.13 s -2.682 1.701 -4.914 1.701 c -0.648 0 -1.31 -0.072 -1.984 -0.216 a 6.08 6.08 0 0 1 -1.837 -0.702 a 4.277 4.277 0 0 1 -1.363 -1.269 c -0.36 -0.522 -0.558 -1.16 -0.594 -1.917 h 2.295 c 0.018 0.414 0.148 0.765 0.391 1.053 c 0.244 0.288 0.54 0.522 0.892 0.702 c 0.35 0.18 0.733 0.31 1.147 0.392 c 0.414 0.08 0.81 0.121 1.188 0.121 c 0.756 0 1.395 -0.13 1.917 -0.391 a 3.599 3.599 0 0 0 1.296 -1.08 c 0.342 -0.46 0.59 -1.013 0.742 -1.66 c 0.154 -0.649 0.23 -1.36 0.23 -2.134 v -0.918 h -0.054 c -0.396 0.864 -0.994 1.499 -1.796 1.904 a 5.578 5.578 0 0 1 -2.551 0.607 c -1.044 0 -1.953 -0.189 -2.727 -0.567 a 5.707 5.707 0 0 1 -1.944 -1.525 a 6.497 6.497 0 0 1 -1.174 -2.241 a 9.244 9.244 0 0 1 -0.392 -2.714 c 0 -0.828 0.108 -1.678 0.324 -2.551 a 6.958 6.958 0 0 1 1.08 -2.376 c 0.504 -0.711 1.17 -1.296 1.998 -1.755 c 0.828 -0.46 1.845 -0.689 3.051 -0.689 c 0.882 0 1.692 0.194 2.43 0.58 c 0.738 0.388 1.314 0.968 1.728 1.742 h 0.027 V 7.327 h 2.16 v 12.771 Z m -6.426 -0.675 c 0.756 0 1.4 -0.157 1.93 -0.472 a 3.765 3.765 0 0 0 1.283 -1.242 a 5.677 5.677 0 0 0 0.715 -1.742 c 0.154 -0.648 0.23 -1.296 0.23 -1.944 c 0 -0.612 -0.072 -1.215 -0.216 -1.809 a 5.046 5.046 0 0 0 -0.689 -1.606 a 3.576 3.576 0 0 0 -1.228 -1.148 c -0.504 -0.288 -1.116 -0.432 -1.836 -0.432 c -0.738 0 -1.368 0.14 -1.89 0.419 c -0.522 0.279 -0.95 0.652 -1.282 1.12 a 4.751 4.751 0 0 0 -0.73 1.62 a 7.876 7.876 0 0 0 -0.229 1.917 c 0 0.63 0.063 1.26 0.189 1.89 c 0.126 0.63 0.342 1.202 0.648 1.715 c 0.306 0.513 0.711 0.927 1.215 1.242 c 0.504 0.315 1.134 0.472 1.89 0.472 Z"/>
			</g>
		<script xmlns=""/></svg>