<svg xmlns="http://www.w3.org/2000/svg" viewBox="0 0 54 31"><path fill="#092344" fill-rule="evenodd" d="M24.319 14.013V0h3.218v7.852l.859-1.048 1.852-2.136h4.601L30.99 8.36l4.024 5.652h-4.174l-2.192-3.553-1.11 1.031v2.522H24.32zM6.208 4.667l-1.56 6.382-1.22-6.382H.072l2.48 9.346h4.313l1.208-4.85 1.208 4.85h4.314l2.487-9.346h-3.37l-1.213 6.382-1.586-6.382H6.208zM52.893 7.385l.18-2.718h-2.938l-.223 1.025c-.676-.698-1.517-1.276-2.998-1.276-2.678 0-4.141 1.695-4.141 4.907 0 3.213 1.463 4.907 4.141 4.907 1.48 0 2.322-.576 2.998-1.274l.23 1.057h2.93l-.179-2.751V7.385zm-3.211 3.126c-.412.524-1.054.873-1.894.873-.962 0-1.73-.612-1.73-2.061 0-1.45.767-2.06 1.73-2.06.84 0 1.482.35 1.894.873v2.375zM19.516.052c-1.016 0-1.84.806-1.84 1.8s.824 1.8 1.84 1.8c1.017 0 1.84-.806 1.84-1.8s-.823-1.8-1.84-1.8zM22.288 6.638v-1.97h-4.612v9.345h4.612v-1.96h-1.445V6.636h1.445zM37.483 1.852c0 .994.824 1.8 1.84 1.8 1.017 0 1.84-.806 1.84-1.8s-.823-1.8-1.84-1.8c-1.016 0-1.84.806-1.84 1.8zM37.997 12.052h-1.445v1.96h4.612V4.669h-4.612v1.97h1.445v5.414z" clip-rule="evenodd"></path><path fill="#656E78" d="M24.41 27.187c-.12 0-.22-.035-.303-.104-.071-.081-.107-.18-.107-.295v-1.196c0-.116.036-.214.107-.295.083-.08.184-.121.303-.121h1.228c.119 0 .214.04.285.121.083.081.125.18.125.295v1.196c0 .116-.042.214-.125.295-.071.069-.166.104-.285.104H24.41zM32.159 27.36c-1.306 0-2.315-.358-3.027-1.075-.7-.716-1.074-1.67-1.122-2.86l-.018-.745.018-.745c.048-1.19.428-2.144 1.14-2.86.724-.717 1.727-1.075 3.009-1.075 1.282 0 2.279.358 2.991 1.075.724.716 1.11 1.67 1.158 2.86.023.254.035.502.035.745s-.012.491-.035.745c-.048 1.19-.428 2.144-1.14 2.86-.7.717-1.703 1.075-3.009 1.075zm0-1.3c.76 0 1.36-.231 1.798-.693.451-.474.695-1.15.73-2.028.012-.116.018-.335.018-.659s-.006-.543-.018-.659c-.035-.878-.279-1.548-.73-2.01-.439-.474-1.038-.711-1.798-.711s-1.365.237-1.816.71c-.44.463-.677 1.133-.712 2.011l-.018.659.018.659c.035.878.273 1.554.712 2.028.45.462 1.056.693 1.816.693zM39 27.187c-.118 0-.219-.035-.302-.104-.071-.081-.107-.18-.107-.295v-8.199c0-.115.036-.213.107-.294.083-.081.184-.122.303-.122h.748c.13 0 .231.04.302.122.084.069.125.167.125.294v.763c.487-.786 1.312-1.179 2.475-1.179h.694c.131 0 .232.035.303.104.071.07.107.168.107.295v.641c0 .116-.036.214-.107.295-.071.07-.172.104-.303.104h-1.014c-.653 0-1.17.185-1.55.555-.367.37-.551.872-.551 1.508v5.113c0 .116-.042.214-.125.295-.083.069-.184.104-.303.104h-.801zM48.851 31c-.985 0-1.774-.162-2.368-.485-.593-.324-1.015-.694-1.264-1.11-.237-.416-.356-.774-.356-1.074 0-.104.042-.197.125-.278.083-.069.178-.104.285-.104h.783c.107 0 .196.023.267.07.071.057.13.156.178.294.333.925 1.086 1.387 2.261 1.387.89 0 1.55-.185 1.977-.555.427-.37.64-1.022.64-1.958V25.99c-.688.855-1.65 1.282-2.884 1.282-1.258 0-2.202-.393-2.83-1.178-.618-.786-.944-1.78-.98-2.982l-.018-.485.018-.468c.036-1.19.362-2.178.98-2.964.628-.797 1.572-1.196 2.83-1.196 1.247 0 2.22.445 2.92 1.335v-.746c0-.115.036-.213.107-.294.083-.081.184-.122.303-.122h.765c.12 0 .214.04.285.122.084.08.125.179.125.294v8.407C53 29.666 51.617 31 48.851 31zm-.035-5.079c.83 0 1.454-.26 1.87-.78.427-.531.658-1.167.694-1.906.012-.104.017-.307.017-.607 0-.289-.005-.485-.017-.59-.036-.739-.267-1.369-.695-1.889-.415-.531-1.038-.797-1.87-.797-.854 0-1.477.266-1.869.797-.38.52-.587 1.196-.623 2.028l-.018.451.018.468c.036.832.243 1.514.623 2.045.392.52 1.015.78 1.87.78z"></path></svg>